<?xml version="1.0" encoding="UTF-8" standalone="no"?>
<svg
   viewBox="0 0 256 256"
   width="256"
   height="256"
   version="1.1"
   id="svg2"
   sodipodi:docname="favicon-source.svg"
   xmlns:inkscape="http://www.inkscape.org/namespaces/inkscape"
   xmlns:sodipodi="http://sodipodi.sourceforge.net/DTD/sodipodi-0.dtd"
   xmlns="http://www.w3.org/2000/svg"
   xmlns:svg="http://www.w3.org/2000/svg">
  <defs
     id="defs2" />
  <sodipodi:namedview
     id="namedview2"
     pagecolor="#ffffff"
     bordercolor="#000000"
     borderopacity="0.25"
     inkscape:showpageshadow="2"
     inkscape:pageopacity="0.0"
     inkscape:pagecheckerboard="0"
     inkscape:deskcolor="#d1d1d1" />
  <!-- SwirlEvo icon: original swirl (vectorized via potrace) + evolution chevron badge -->
  <title
     id="title1">SwirlEvo</title>
  <!-- Original swirl path (from potrace trace of original favicon) -->
  <g
     transform="matrix(0.1,0,0,-0.1,0,256)"
     fill="#000000"
     stroke="none"
     id="g1">
    <path
       d="M 1096,2500 C 635,2427 245,2094 107,1655 60,1506 55,1464 56,1270 57,1105 60,1075 82,989 182,618 403,343 737,176 1204,-57 1777,37 2150,410 c 569,570 448,1519 -247,1932 -97,58 -206,102 -332,135 -78,20 -126,25 -256,28 -88,2 -187,0 -219,-5 z m 470,-394 c 294,-100 515,-350 579,-657 28,-132 14,-360 -29,-464 -12,-29 -13,-29 -20,35 -24,220 -101,378 -260,535 -114,113 -208,174 -357,230 -53,20 -104,47 -116,61 -86,95 -12,280 113,283 11,1 52,-10 90,-23 z m -386,-4 C 1104,2050 999,1957 953,1900 806,1719 736,1466 763,1215 782,1039 776,1014 702,964 651,929 587,924 532,952 c -56,28 -77,62 -91,148 -68,421 186,842 589,975 45,15 148,41 170,43 3,1 -6,-7 -20,-16 z M 1880,924 c 29,-14 72,-59 89,-91 17,-34 13,-104 -9,-140 -27,-45 -159,-140 -255,-185 -129,-61 -219,-80 -370,-81 -192,0 -332,40 -490,144 -72,47 -212,175 -202,185 3,3 28,-6 55,-20 153,-78 368,-104 544,-68 154,32 303,103 431,207 92,73 138,85 207,49 z"
       id="path1" />
  </g>
  <!-- Evolution badge: white circle with black chevron, bottom-right -->
  <g
     id="g2">
    <circle
       cx="204"
       cy="204"
       r="40"
       fill="#ffffff"
       stroke="#000000"
       stroke-width="6"
       id="circle1" />
    <polyline
       points="196,188 216,204 196,220"
       fill="none"
       stroke="#000000"
       stroke-width="12"
       stroke-linecap="round"
       stroke-linejoin="round"
       id="polyline1" />
  </g>
  <path
     style="opacity:0;fill:#ffffff;stroke:#373f80;stroke-width:0.00281938"
     d="m 58.290749,162.38118 c -2.245661,-0.32361 -4.948741,-1.40197 -7.211681,-2.87703 -3.872128,-2.52398 -5.700446,-6.06604 -6.878433,-13.32579 -0.821551,-5.06309 -1.099433,-8.57095 -1.099433,-13.8788 0,-4.25092 0.133849,-6.56767 0.606758,-10.5022 3.712923,-30.890978 23.944289,-58.272234 52.080586,-70.486196 5.626334,-2.442392 12.930784,-4.681469 21.074894,-6.460216 2.92864,-0.639642 3.05252,-0.656096 2.81871,-0.374368 -0.1073,0.129286 -0.80126,0.653805 -1.54214,1.165598 -7.61462,5.260104 -17.63472,14.09535 -22.300264,19.663301 -9.458333,11.287762 -16.114508,26.234176 -18.78583,42.183511 -0.842785,5.03191 -1.20015,8.99533 -1.309189,14.51982 -0.09494,4.81021 0.0481,7.84063 0.658718,13.95595 0.624771,6.257 0.748401,8.39414 0.670748,11.59498 -0.06173,2.54437 -0.117979,3.1037 -0.432429,4.29982 -0.785056,2.9862 -2.332915,4.87617 -6.078611,7.4221 -2.503777,1.7018 -4.706447,2.62205 -7.271871,3.03809 -1.431962,0.23223 -3.628059,0.25921 -5.000533,0.0614 z"
     id="path2" />
  <path
     style="opacity:1;fill:#ffffff;stroke:#373f80;stroke-width:0.00281938"
     d="m 58.290749,162.38118 c -2.245661,-0.32361 -4.948741,-1.40197 -7.211681,-2.87703 -3.872128,-2.52398 -5.700446,-6.06604 -6.878433,-13.32579 -0.821551,-5.06309 -1.099433,-8.57095 -1.099433,-13.8788 0,-4.25092 0.133849,-6.56767 0.606758,-10.5022 3.712923,-30.890978 23.944289,-58.272234 52.080586,-70.486196 5.626334,-2.442392 12.930784,-4.681469 21.074894,-6.460216 2.92864,-0.639642 3.05252,-0.656096 2.81871,-0.374368 -0.1073,0.129286 -0.80126,0.653805 -1.54214,1.165598 -7.61462,5.260104 -17.63472,14.09535 -22.300264,19.663301 -9.458333,11.287762 -16.114508,26.234176 -18.78583,42.183511 -0.842785,5.03191 -1.20015,8.99533 -1.309189,14.51982 -0.09494,4.81021 0.0481,7.84063 0.658718,13.95595 0.624771,6.257 0.748401,8.39414 0.670748,11.59498 -0.06173,2.54437 -0.117979,3.1037 -0.432429,4.29982 -0.785056,2.9862 -2.332915,4.87617 -6.078611,7.4221 -2.503777,1.7018 -4.706447,2.62205 -7.271871,3.03809 -1.431962,0.23223 -3.628059,0.25921 -5.000533,0.0614 z"
     id="path3" />
  <path
     style="opacity:1;fill:#ffffff;stroke:#373f80;stroke-width:0.00281938"
     d="m 210.41703,159.18744 c -0.12877,-0.20835 -0.37283,-1.82565 -0.7283,-4.82621 -0.51889,-4.38003 -0.85993,-6.61832 -1.48594,-9.75254 -2.66621,-13.34874 -7.67073,-24.1764 -16.04902,-34.72323 -3.07868,-3.87553 -10.22351,-11.291241 -14.32117,-14.864123 -9.0715,-7.909733 -16.46732,-12.273673 -29.53304,-17.426107 -4.27176,-1.684558 -8.38996,-3.661064 -10.39177,-4.987471 -1.4749,-0.977272 -2.54753,-2.214527 -3.52629,-4.067476 -1.21935,-2.308427 -1.65487,-4.264532 -1.65431,-7.430151 5.7e-4,-3.255731 0.48743,-5.464884 1.84621,-8.377196 2.71017,-5.808813 7.73507,-9.495256 12.95083,-9.501179 1.80043,-0.002 3.43822,0.381993 8.03202,1.883386 27.88267,9.112903 49.39776,31.607657 57.43272,60.047857 1.84861,6.54325 2.56823,11.36162 2.82896,18.94175 0.44808,13.0272 -1.5439,27.68627 -4.65777,34.27679 -0.40677,0.86092 -0.58779,1.05724 -0.74313,0.8059 z"
     id="path4" />
  <path
     style="opacity:1;fill:#ffffff;stroke:#373f80;stroke-width:0.00281938"
     d="m 128,213.1408 c -15.96953,-0.76293 -28.254196,-4.65014 -41.845518,-13.2411 -4.648761,-2.93844 -9.661548,-6.94418 -15.865013,-12.67781 -3.243333,-2.99769 -6.007531,-6.06578 -6.007531,-6.66799 0,-0.2154 0.731844,-0.11205 1.808921,0.25546 0.594521,0.20286 2.50826,1.05334 4.252753,1.88997 3.649466,1.7502 6.101202,2.73984 9.585903,3.86933 13.390952,4.34036 29.219665,5.4303 42.854625,2.95089 2.58187,-0.46949 7.01989,-1.57524 10.08607,-2.51298 5.11951,-1.56572 9.73004,-3.40983 14.8652,-5.94577 7.10229,-3.50737 12.13508,-6.70711 19.23436,-12.22881 1.77918,-1.38381 3.97924,-3.00853 4.88902,-3.61049 5.48031,-3.62605 9.3115,-4.35223 13.80722,-2.61708 1.24629,0.48102 2.73436,1.18986 2.64757,1.26118 -0.0271,0.0223 -0.8105,0.37445 -1.74089,0.78265 -7.32749,3.21481 -13.87157,8.72751 -18.32853,15.43986 -3.85246,5.80194 -6.00561,11.54972 -6.99702,18.67841 -0.20373,1.46486 -0.26575,8.66961 -0.0834,9.68592 l 0.10648,0.59341 -1.93908,0.62432 c -5.834,1.87838 -11.21255,2.86388 -18.16623,3.32854 -3.12988,0.20914 -10.1707,0.28513 -13.16492,0.14209 z"
     id="path5" />
</svg>
